<svg width="24" height="25" viewBox="0 0 24 25" fill="none" xmlns="http://www.w3.org/2000/svg">
<path d="M21.9706 15.5762C22.1197 15.8346 22.1602 16.1417 22.0829 16.4299C22.0057 16.7182 21.8171 16.9639 21.5587 17.1131C21.3003 17.2622 20.9932 17.3027 20.705 17.2254C20.4168 17.1482 20.1711 16.9596 20.0219 16.7012L18.4959 14.0581C17.6357 14.5945 16.7105 15.0189 15.7428 15.3209L16.2293 18.0801C16.2567 18.2263 16.2548 18.3764 16.2237 18.5219C16.1926 18.6673 16.1331 18.8051 16.0484 18.9274C15.9637 19.0497 15.8557 19.1539 15.7304 19.2342C15.6052 19.3144 15.4653 19.369 15.3189 19.3949C15.1724 19.4207 15.0223 19.4172 14.8772 19.3847C14.7321 19.3521 14.5949 19.2911 14.4735 19.2052C14.3521 19.1192 14.249 19.0101 14.17 18.884C14.0911 18.758 14.0379 18.6176 14.0136 18.4708L13.5399 15.7845C12.514 15.9054 11.4774 15.9051 10.4516 15.7836L9.97807 18.4697C9.92495 18.7623 9.75813 19.022 9.51409 19.192C9.27006 19.3619 8.96865 19.4283 8.67578 19.3767C8.38291 19.325 8.12241 19.1595 7.95122 18.9163C7.78004 18.6732 7.71211 18.3721 7.76229 18.079L8.24894 15.3185C7.2826 15.0161 6.35877 14.5917 5.49982 14.0555L3.96382 16.7159C3.81463 16.9743 3.56891 17.1629 3.2807 17.2401C2.9925 17.3173 2.68542 17.2769 2.42702 17.1277C2.16862 16.9786 1.98007 16.7328 1.90284 16.4446C1.82561 16.1564 1.86604 15.8493 2.01522 15.5909L3.68913 12.6916C3.12479 12.183 2.60171 11.6303 2.12482 11.0389C1.94023 10.8065 1.85493 10.5106 1.8875 10.2157C1.92007 9.92071 2.06787 9.65055 2.29871 9.46405C2.52955 9.27756 2.82473 9.18982 3.11996 9.21996C3.41519 9.2501 3.68655 9.39568 3.87494 9.62497C5.34925 11.4498 7.95541 13.625 12 13.625C16.0443 13.625 18.6506 11.4498 20.1249 9.62507C20.2173 9.50878 20.3318 9.41193 20.4618 9.34011C20.5918 9.26829 20.7347 9.22292 20.8823 9.20663C21.0299 9.19033 21.1793 9.20342 21.3219 9.24514C21.4644 9.28687 21.5973 9.3564 21.7128 9.44974C21.8283 9.54307 21.9242 9.65835 21.995 9.78894C22.0657 9.91952 22.1099 10.0628 22.125 10.2106C22.1401 10.3583 22.1257 10.5076 22.0828 10.6498C22.0399 10.792 21.9693 10.9243 21.875 11.039C21.3971 11.6317 20.8728 12.1855 20.3071 12.695L21.9706 15.5762Z" fill="black"/>
</svg>
