<svg width="24" height="25" viewBox="0 0 24 25" fill="none" xmlns="http://www.w3.org/2000/svg">
<path d="M23.528 12.0431C23.494 11.9664 22.6724 10.1437 20.858 8.32915C18.4345 5.90533 15.3714 4.62415 12 4.62415C8.62855 4.62415 5.56545 5.90533 3.14202 8.32915C1.32758 10.1437 0.505954 11.9664 0.472016 12.0431C0.408091 12.187 0.375061 12.3426 0.375061 12.5C0.375061 12.6574 0.408091 12.8131 0.472016 12.9569C0.506048 13.0336 1.32767 14.8559 3.14202 16.6701C5.56555 19.0934 8.62855 20.3741 12 20.3741C15.3714 20.3741 18.4344 19.0934 20.8579 16.6701C22.6723 14.856 23.4939 13.0336 23.528 12.9569C23.592 12.8131 23.625 12.6574 23.625 12.5C23.625 12.3426 23.592 12.187 23.528 12.0431ZM19.2107 15.135C17.1999 17.1185 14.7739 18.1242 12 18.1242C9.22611 18.1242 6.80005 17.1185 4.7893 15.135C3.99859 14.3527 3.31826 13.4662 2.76711 12.5C3.31822 11.5335 3.99855 10.6467 4.7893 9.86402C6.80033 7.88008 9.2262 6.87424 12 6.87424C14.7738 6.87424 17.1998 7.88018 19.2106 9.86402C20.0013 10.6466 20.6816 11.5334 21.2328 12.4998C20.6817 13.4661 20.0014 14.3526 19.2107 15.135ZM12 8.37499C11.1841 8.37499 10.3866 8.61692 9.70826 9.07018C9.02991 9.52344 8.50119 10.1677 8.18898 10.9214C7.87677 11.6752 7.79508 12.5046 7.95425 13.3047C8.11341 14.1049 8.50628 14.8399 9.08317 15.4168C9.66006 15.9937 10.3951 16.3866 11.1952 16.5457C11.9954 16.7049 12.8248 16.6232 13.5786 16.311C14.3323 15.9988 14.9765 15.4701 15.4298 14.7917C15.8831 14.1134 16.125 13.3158 16.125 12.5C16.1237 11.4064 15.6887 10.3579 14.9154 9.58454C14.1421 8.81122 13.0936 8.37623 12 8.37499ZM12 14.375C11.6291 14.375 11.2666 14.265 10.9583 14.059C10.6499 13.853 10.4096 13.5601 10.2677 13.2175C10.1258 12.8749 10.0887 12.4979 10.161 12.1342C10.2334 11.7705 10.4119 11.4364 10.6742 11.1742C10.9364 10.9119 11.2705 10.7334 11.6342 10.661C11.9979 10.5887 12.3749 10.6258 12.7175 10.7677C13.0601 10.9096 13.353 11.15 13.559 11.4583C13.765 11.7666 13.875 12.1291 13.875 12.5C13.8744 12.9971 13.6767 13.4737 13.3252 13.8252C12.9737 14.1767 12.4971 14.3744 12 14.375Z" fill="black"/>
</svg>
